<svg xmlns="http://www.w3.org/2000/svg" xml:space="preserve" width="32" height="32" viewBox="0 0 28 28"><path fill="#FFA0C6" d="M6.61 15.816c-.957 4.152 4.172 8.27 8.161 8.218C17.393 24 23.944 15.92 24.932 8.519c.628-4.703-8.718-6.325-10.901-5.221-4.787 2.421-6.782 9.741-7.421 12.518z"/><path fill="#FFAB66" d="M18.54 14.022c5.877-.912 6.612 4.511 4.334 9.732-1.403 3.217-9.183 0-9.33-3.548-.232-5.616.317-5.457 4.996-6.184z"/><path d="M19.5 26a.496.496 0 0 1-.299-.1C18.947 25.712 13 21.23 13 17.631A3.635 3.635 0 0 1 16.631 14a3.63 3.63 0 0 1 2.869 1.403A3.629 3.629 0 0 1 22.369 14 3.635 3.635 0 0 1 26 17.631c0 3.6-5.947 8.081-6.201 8.27A.501.501 0 0 1 19.5 26zm-2.869-11A2.635 2.635 0 0 0 14 17.631c0 2.429 3.723 5.848 5.5 7.239 1.776-1.392 5.5-4.813 5.5-7.239A2.635 2.635 0 0 0 22.369 15a2.622 2.622 0 0 0-2.41 1.577c-.158.365-.758.365-.918 0A2.624 2.624 0 0 0 16.631 15z"/><path d="M11.5 26a2.448 2.448 0 0 1-1.769-.741l-6.995-6.995A2.444 2.444 0 0 1 2 16.5c0-.639.252-1.266.69-1.718L13.96 3.094A3.472 3.472 0 0 1 16.5 2h7C24.879 2 26 3.121 26 4.5v7c0 .316-.043.631-.129.936a.5.5 0 0 1-.963-.271c.061-.217.092-.44.092-.665v-7c0-.827-.673-1.5-1.5-1.5h-7c-.692 0-1.337.278-1.816.784L3.41 15.477c-.261.269-.41.641-.41 1.023 0 .403.156.776.438 1.052l7.005 7.005c.546.559 1.526.568 2.079.034l.791-.761a.5.5 0 0 1 .693.721l-.79.76A2.484 2.484 0 0 1 11.5 26z"/><path d="M21 9c-1.103 0-2-.897-2-2s.897-2 2-2 2 .897 2 2-.897 2-2 2zm0-3a1 1 0 1 0 0 2 1 1 0 0 0 0-2z"/></svg>